PathFileType	4	(X/Y/Z)	C:/Users/opensim2020/Desktop/walking_exp_matlab/subject06_walking23_straight_01.trc	
DataRate	CameraRate	NumFrames	NumMarkers	Units	OrigDataRate	OrigDataStartFrame	OrigNumFrames	
100.00	100.00	5	45	mm	100.00	738	106	
Frame#	Time	LFHD			RFHD			LBHD			RBHD			C7			T10			CLAV			STRN			RBAK			LSHO			LUPA			LELB			LFRM			LWRA			LWRB			LFIN			RSHO			RUPA			RELB			RFRM			RWRA			RWRB			RFIN			LASI			RASI			LPSI			RPSI			LTHI			LKNE			LTIB			LANK			LHEE			LTOE			RTHI			RKNE			RTIB			RANK			RHEE			RTOE			*39			*40			*41			*42			*43			*44			
		X1	Y1	Z1	X2	Y2	Z2	X3	Y3	Z3	X4	Y4	Z4	X5	Y5	Z5	X6	Y6	Z6	X7	Y7	Z7	X8	Y8	Z8	X9	Y9	Z9	X10	Y10	Z10	X11	Y11	Z11	X12	Y12	Z12	X13	Y13	Z13	X14	Y14	Z14	X15	Y15	Z15	X16	Y16	Z16	X17	Y17	Z17	X18	Y18	Z18	X19	Y19	Z19	X20	Y20	Z20	X21	Y21	Z21	X22	Y22	Z22	X23	Y23	Z23	X24	Y24	Z24	X25	Y25	Z25	X26	Y26	Z26	X27	Y27	Z27	X28	Y28	Z28	X29	Y29	Z29	X30	Y30	Z30	X31	Y31	Z31	X32	Y32	Z32	X33	Y33	Z33	X34	Y34	Z34	X35	Y35	Z35	X36	Y36	Z36	X37	Y37	Z37	X38	Y38	Z38	X39	Y39	Z39	X40	Y40	Z40	X41	Y41	Z41	X42	Y42	Z42	X43	Y43	Z43	X44	Y44	Z44	X45	Y45	Z45	

1	0.000	1323.63647	-847.65857	1651.33044	1455.13501	-844.56628	1645.93701	1328.95850	-984.66675	1606.40027	1458.22742	-979.42487	1605.56262	1384.54480	-994.20306	1452.64368	1396.61926	-1064.14124	1131.09741	1395.22766	-891.22516	1365.98572	1392.71912	-869.89264	1187.22278	1458.84167	-1088.14209	1293.43628	1229.04785	-929.98926	1401.05603	1149.42822	-935.06604	1201.73743	1130.33850	-940.08612	1090.08972	1102.78528	-901.31030	945.93988	1142.66748	-829.57416	837.09534	1102.13232	-887.91864	827.38831	1100.34985	-837.89978	751.20551	1551.39465	-945.36304	1406.78113	1638.88940	-1035.88806	1229.10364	1656.72009	-1060.67871	1109.91614	1681.10608	-1084.87695	993.09686	1665.40942	-1069.32800	840.20947	1696.15381	-1126.37842	860.91400	1705.96484	-1116.00122	777.40424	1292.82141	-906.61511	954.71606	1511.15320	-914.34875	956.59698	1317.55835	-1060.32739	999.79712	1484.60034	-1061.39368	993.73468	1235.27600	-998.82544	649.10474	1262.59790	-1013.74713	486.29388	1272.85339	-1089.89075	238.70880	1323.89734	-1121.22900	70.18002	1366.42371	-1166.51160	58.84897	1332.25745	-980.28613	40.80463	1579.62439	-899.69946	642.07404	1565.08301	-842.98981	529.36084	1538.60828	-960.59039	301.45676	1478.91138	-1049.38794	144.54828	1426.35461	-1087.95715	134.56921	1504.22766	-925.88354	60.39872	1383.39575	-943.65527	1698.56982															 
2	0.010	1323.74915	-836.71979	1650.17847	1455.27441	-833.83142	1644.56421	1328.96936	-973.68799	1605.23279	1458.21619	-968.53296	1604.22302	1384.22290	-983.36652	1451.43030	1396.48181	-1052.97449	1129.79553	1394.96753	-880.26782	1364.86328	1391.92310	-858.84222	1186.13196	1458.02881	-1077.28662	1292.03235	1228.68909	-919.04749	1400.12952	1148.80835	-922.02032	1200.97717	1129.47839	-925.09387	1089.18945	1102.46313	-882.37109	946.21033	1142.67761	-806.95624	840.02350	1102.55920	-865.13391	828.02771	1100.79517	-812.42145	753.68713	1551.02661	-934.91992	1405.33521	1637.75781	-1026.33008	1227.91785	1655.38672	-1051.79321	1108.91174	1679.79663	-1077.85815	992.52887	1664.57642	-1064.82495	839.38379	1694.98462	-1121.71204	860.95941	1704.90393	-1112.81946	777.26837	1291.91650	-896.19879	953.29816	1509.77478	-902.43958	955.40765	1317.78235	-1049.73755	998.58710	1484.84009	-1049.18811	992.59332	1235.15332	-991.86011	647.78137	1262.59583	-1008.54352	485.23135	1273.57471	-1087.11096	238.35381	1324.39746	-1120.89343	70.57614	1367.33411	-1166.08044	59.71585	1332.33167	-980.07697	40.44865	1578.85559	-883.31000	643.09857	1563.45471	-825.43597	531.03772	1537.77014	-933.66803	296.97131	1478.79724	-1013.43170	134.98018	1426.26660	-1051.46179	123.09531	1505.64331	-886.03314	57.64851	1383.53003	-932.72723	1697.34912															 
3	0.020	1323.99829	-825.59808	1648.91333	1455.47009	-822.82568	1643.10583	1328.99561	-962.63153	1603.87097	1458.21643	-957.56506	1602.68372	1383.92468	-972.39520	1450.01526	1396.49304	-1041.65833	1128.31152	1394.59436	-869.34656	1363.48657	1391.21313	-847.57050	1184.91443	1457.32861	-1066.24780	1290.46729	1228.38574	-907.93121	1399.08801	1148.28357	-909.01202	1200.03491	1128.68530	-910.35358	1088.22314	1102.20557	-863.21045	946.34589	1142.86841	-784.41449	843.14545	1103.14026	-842.33057	828.76703	1101.47620	-787.07343	756.48273	1550.73669	-924.29651	1403.73071	1636.65723	-1016.56177	1226.53040	1654.03784	-1042.64172	1107.71521	1678.56311	-1070.58362	991.75616	1663.98462	-1060.15552	838.44312	1693.88074	-1116.81079	860.96326	1703.88123	-1109.38733	777.04950	1290.91284	-886.12506	951.71228	1509.10400	-889.40955	954.44769	1318.12036	-1039.08911	997.13885	1485.09741	-1037.31543	991.32446	1235.64136	-984.04260	646.53729	1262.57263	-1003.02313	484.05429	1273.66943	-1085.00806	238.37018	1324.86255	-1120.34802	70.83300	1367.91577	-1165.64355	60.35345	1332.39893	-979.71918	40.28926	1578.26233	-867.46399	643.75293	1561.98096	-808.64386	532.18304	1537.12708	-906.73987	292.23087	1478.71997	-976.61786	125.50905	1425.81580	-1013.35577	111.45618	1506.86035	-845.67566	54.91758	1383.68359	-921.77069	1695.92725															 
4	0.030	1324.15015	-814.63678	1647.54578	1455.62012	-811.98737	1641.47668	1329.05518	-951.46326	1602.33630	1458.32336	-946.54285	1600.98291	1383.67676	-961.28088	1448.47095	1396.53955	-1030.21729	1126.69971	1394.40076	-858.14526	1361.97754	1390.58069	-836.27899	1183.49170	1456.73352	-1055.06812	1288.66821	1228.14722	-896.73523	1397.90100	1147.84143	-895.99976	1199.00159	1128.00195	-895.69208	1087.19836	1102.08313	-844.36615	946.58447	1142.85266	-762.38464	846.27570	1103.95300	-819.57837	829.76361	1102.37585	-761.68365	759.65839	1550.47034	-913.45538	1401.97351	1635.57483	-1006.44293	1224.93115	1652.82385	-1033.27734	1106.40576	1677.35425	-1063.06458	990.88831	1663.55591	-1055.18445	837.24182	1692.91284	-1111.68005	861.00671	1703.22314	-1105.85059	776.93787	1289.96704	-875.31781	950.12573	1508.15222	-876.88721	953.04437	1318.64880	-1028.50586	995.62799	1485.40845	-1025.77002	990.02454	1235.74841	-976.50787	645.19434	1262.49878	-997.24432	482.84412	1273.63599	-1082.76245	238.26427	1325.32300	-1119.81067	71.30769	1368.47363	-1165.11292	61.07770	1332.25757	-979.28839	40.26041	1578.14282	-852.06702	644.00891	1560.61621	-792.66693	532.86713	1536.60889	-879.70197	287.34741	1478.77209	-939.15155	116.39403	1425.70728	-974.80115	100.55360	1507.77075	-805.03241	52.25405	1383.91492	-910.73224	1694.36963															 
5	0.040	1324.39587	-803.50275	1646.11719	1455.94385	-800.74176	1639.83142	1329.18127	-940.23993	1600.68347	1458.40784	-935.42462	1599.16614	1383.54944	-950.07178	1446.86108	1396.71350	-1018.73932	1124.97815	1394.24829	-846.75909	1360.52576	1389.91638	-824.81940	1181.92261	1456.18848	-1043.71680	1286.80237	1227.99194	-885.46051	1396.59961	1147.45190	-883.04626	1197.83447	1127.37366	-881.10638	1085.99219	1102.13977	-825.64264	946.89899	1143.73682	-739.83386	850.14429	1105.01855	-796.83759	830.95483	1103.44421	-736.42749	763.05798	1550.35864	-902.41479	1400.06995	1634.56750	-996.09570	1223.22388	1651.41321	-1024.95618	1105.29370	1676.21509	-1055.31665	989.98920	1663.05469	-1049.96985	836.09503	1691.90369	-1106.22937	860.85413	1702.55615	-1102.03833	776.81458	1289.04553	-864.63086	948.41278	1507.64905	-863.57672	951.88452	1319.35095	-1017.76965	993.88702	1485.83545	-1014.67596	988.67499	1235.98108	-968.79938	643.87292	1262.49524	-991.23834	481.60065	1273.98425	-1079.90369	238.17278	1325.64355	-1119.35071	71.78176	1369.00134	-1164.61401	61.88230	1332.10254	-979.20056	40.22540	1577.64197	-837.43250	643.83624	1559.17236	-777.54871	532.77130	1536.19019	-852.56366	282.39200	1478.98486	-901.10107	107.76306	1425.78552	-935.65771	90.46851	1508.47693	-764.12231	49.62445	1384.17627	-899.69751	1692.75159															 
